HIERARCHY
ROOT Hips
{
    OFFSET   0.000000   0.000000   0.000000
    CHANNELS 6 Xposition Yposition Zposition Zrotation Xrotation Yrotation
    JOINT Chest
    {
        OFFSET   0.000000   8.007240   0.000000
        CHANNELS 3 Zrotation Xrotation Yrotation
        JOINT Chest2
        {
            OFFSET   0.000000  22.077100   0.000000
            CHANNELS 3 Zrotation Xrotation Yrotation
            JOINT Neck
            {
                OFFSET   0.000000  23.254800   0.000000
                CHANNELS 3 Zrotation Xrotation Yrotation
                JOINT Head
                {
                    OFFSET   0.000000  14.370000   1.956600
                    CHANNELS 3 Zrotation Xrotation Yrotation
                    End Site
                    {
                        OFFSET   0.000000  19.566000   0.000000
                    }
                }
            }
            JOINT LeftCollar
            {
                OFFSET   3.911900  19.017000  -0.467064
                CHANNELS 3 Zrotation Xrotation Yrotation
                JOINT LeftShoulder
                {
                    OFFSET  10.383700   0.000000   0.000000
                    CHANNELS 3 Zrotation Xrotation Yrotation
                    JOINT LeftElbow
                    {
                        OFFSET  26.662100   0.001476   0.000517
                        CHANNELS 3 Zrotation Xrotation Yrotation
                        JOINT LeftWrist
                        {
                            OFFSET  28.869000  -0.000025  -0.000106
                            CHANNELS 3 Zrotation Xrotation Yrotation
                            JOINT LeftFinger0
                            {
                                OFFSET   2.044660  -2.323460   3.252850
                                CHANNELS 3 Zrotation Xrotation Yrotation
                                JOINT LeftFinger01
                                {
                                    OFFSET   3.088130   0.000000   0.000000
                                    CHANNELS 3 Zrotation Xrotation Yrotation
                                    JOINT LeftFinger02
                                    {
                                        OFFSET   2.639460   0.000000   0.000000
                                        CHANNELS 3 Zrotation Xrotation Yrotation
                                        End Site
                                        {
                                            OFFSET   2.582190   0.000000   0.000000
                                        }
                                    }
                                }
                            }
                            JOINT LeftFinger1
                            {
                                OFFSET   8.364480   0.000000   3.252850
                                CHANNELS 3 Zrotation Xrotation Yrotation
                                JOINT LeftFinger11
                                {
                                    OFFSET   4.646930   0.000000   0.000000
                                    CHANNELS 3 Zrotation Xrotation Yrotation
                                    JOINT LeftFinger12
                                    {
                                        OFFSET   2.323460   0.000000   0.000000
                                        CHANNELS 3 Zrotation Xrotation Yrotation
                                        End Site
                                        {
                                            OFFSET   2.273050   0.000000   0.000000
                                        }
                                    }
                                }
                            }
                            JOINT LeftFinger2
                            {
                                OFFSET   8.364490   0.000015   1.078090
                                CHANNELS 3 Zrotation Xrotation Yrotation
                                JOINT LeftFinger21
                                {
                                    OFFSET   5.111620   0.000000   0.000000
                                    CHANNELS 3 Zrotation Xrotation Yrotation
                                    JOINT LeftFinger22
                                    {
                                        OFFSET   2.788160   0.000016   0.000000
                                        CHANNELS 3 Zrotation Xrotation Yrotation
                                        End Site
                                        {
                                            OFFSET   2.727660   0.000000   0.000000
                                        }
                                    }
                                }
                            }
                            JOINT LeftFinger3
                            {
                                OFFSET   7.899780   0.000017  -1.078090
                                CHANNELS 3 Zrotation Xrotation Yrotation
                                JOINT LeftFinger31
                                {
                                    OFFSET   4.646930   0.000000   0.000000
                                    CHANNELS 3 Zrotation Xrotation Yrotation
                                    JOINT LeftFinger32
                                    {
                                        OFFSET   2.323470   0.000000   0.000000
                                        CHANNELS 3 Zrotation Xrotation Yrotation
                                        End Site
                                        {
                                            OFFSET   2.273050   0.000000   0.000000
                                        }
                                    }
                                }
                            }
                            JOINT LeftFinger4
                            {
                                OFFSET   7.435090   0.000000  -3.252850
                                CHANNELS 3 Zrotation Xrotation Yrotation
                                JOINT LeftFinger41
                                {
                                    OFFSET   3.717550   0.000000   0.000000
                                    CHANNELS 3 Zrotation Xrotation Yrotation
                                    JOINT LeftFinger42
                                    {
                                        OFFSET   1.858770   0.000000   0.000000
                                        CHANNELS 3 Zrotation Xrotation Yrotation
                                        End Site
                                        {
                                            OFFSET   1.818440   0.000000   0.000000
                                        }
                                    }
                                }
                            }
                        }
                    }
                }
            }
            JOINT RightCollar
            {
                OFFSET  -3.911900  19.017000  -0.467063
                CHANNELS 3 Zrotation Xrotation Yrotation
                JOINT RightShoulder
                {
                    OFFSET -10.383700   0.000019   0.000000
                    CHANNELS 3 Zrotation Xrotation Yrotation
                    JOINT RightElbow
                    {
                        OFFSET -26.662100   0.001175   0.000102
                        CHANNELS 3 Zrotation Xrotation Yrotation
                        JOINT RightWrist
                        {
                            OFFSET -28.869000   0.000016  -0.000079
                            CHANNELS 3 Zrotation Xrotation Yrotation
                            JOINT RightFinger0
                            {
                                OFFSET  -2.044660  -2.323490   3.252850
                                CHANNELS 3 Zrotation Xrotation Yrotation
                                JOINT RightFinger01
                                {
                                    OFFSET  -3.088140   0.000000   0.000000
                                    CHANNELS 3 Zrotation Xrotation Yrotation
                                    JOINT RightFinger02
                                    {
                                        OFFSET  -2.639460   0.000000   0.000000
                                        CHANNELS 3 Zrotation Xrotation Yrotation
                                        End Site
                                        {
                                            OFFSET  -2.582190   0.000000   0.000000
                                        }
                                    }
                                }
                            }
                            JOINT RightFinger1
                            {
                                OFFSET  -8.364480   0.000000   3.252850
                                CHANNELS 3 Zrotation Xrotation Yrotation
                                JOINT RightFinger11
                                {
                                    OFFSET  -4.646930   0.000000   0.000000
                                    CHANNELS 3 Zrotation Xrotation Yrotation
                                    JOINT RightFinger12
                                    {
                                        OFFSET  -2.323470   0.000000   0.000000
                                        CHANNELS 3 Zrotation Xrotation Yrotation
                                        End Site
                                        {
                                            OFFSET  -2.273050   0.000000   0.000000
                                        }
                                    }
                                }
                            }
                            JOINT RightFinger2
                            {
                                OFFSET  -8.364480   0.000000   1.078090
                                CHANNELS 3 Zrotation Xrotation Yrotation
                                JOINT RightFinger21
                                {
                                    OFFSET  -5.111620   0.000000   0.000000
                                    CHANNELS 3 Zrotation Xrotation Yrotation
                                    JOINT RightFinger22
                                    {
                                        OFFSET  -2.788160   0.000000   0.000000
                                        CHANNELS 3 Zrotation Xrotation Yrotation
                                        End Site
                                        {
                                            OFFSET  -2.727660   0.000000   0.000000
                                        }
                                    }
                                }
                            }
                            JOINT RightFinger3
                            {
                                OFFSET  -7.899780   0.000000  -1.078090
                                CHANNELS 3 Zrotation Xrotation Yrotation
                                JOINT RightFinger31
                                {
                                    OFFSET  -4.646930   0.000000   0.000000
                                    CHANNELS 3 Zrotation Xrotation Yrotation
                                    JOINT RightFinger32
                                    {
                                        OFFSET  -2.323470   0.000000   0.000000
                                        CHANNELS 3 Zrotation Xrotation Yrotation
                                        End Site
                                        {
                                            OFFSET  -2.273050   0.000000   0.000000
                                        }
                                    }
                                }
                            }
                            JOINT RightFinger4
                            {
                                OFFSET  -7.435090   0.000000  -3.252850
                                CHANNELS 3 Zrotation Xrotation Yrotation
                                JOINT RightFinger41
                                {
                                    OFFSET  -3.717550   0.000000   0.000000
                                    CHANNELS 3 Zrotation Xrotation Yrotation
                                    JOINT RightFinger42
                                    {
                                        OFFSET  -1.858770   0.000000   0.000000
                                        CHANNELS 3 Zrotation Xrotation Yrotation
                                        End Site
                                        {
                                            OFFSET  -1.818440   0.000000   0.000000
                                        }
                                    }
                                }
                            }
                        }
                    }
                }
            }
        }
    }
    JOINT LeftHip
    {
        OFFSET   9.783040   0.000000   0.000000
        CHANNELS 3 Zrotation Xrotation Yrotation
        JOINT LeftKnee
        {
            OFFSET   0.000032 -41.789100  -0.002222
            CHANNELS 3 Zrotation Xrotation Yrotation
            JOINT LeftAnkle
            {
                OFFSET   0.000087 -41.133200  -0.000135
                CHANNELS 3 Zrotation Xrotation Yrotation
                JOINT LeftToe
                {
                    OFFSET   0.000000  -6.358960  14.674500
                    CHANNELS 3 Zrotation Xrotation Yrotation
                    End Site
                    {
                        OFFSET   0.000000   0.000000   3.913200
                    }
                }
            }
        }
    }
    JOINT RightHip
    {
        OFFSET  -9.783040   0.000000   0.000000
        CHANNELS 3 Zrotation Xrotation Yrotation
        JOINT RightKnee
        {
            OFFSET   0.000047 -41.789100  -0.000896
            CHANNELS 3 Zrotation Xrotation Yrotation
            JOINT RightAnkle
            {
                OFFSET  -0.000117 -41.133300  -0.000248
                CHANNELS 3 Zrotation Xrotation Yrotation
                JOINT RightToe
                {
                    OFFSET   0.000000  -6.358970  14.674500
                    CHANNELS 3 Zrotation Xrotation Yrotation
                    End Site
                    {
                        OFFSET   0.000000   0.000000   3.913200
                    }
                }
            }
        }
    }
}
MOTION
Frames: 5
Frame Time:   0.016667
 -0.119756  89.897100   0.006348   0.382209 -12.822300   2.089980   1.101280   7.166290  -0.638456   2.311150  14.318400  -1.433910   3.423400   4.275290  -0.253696   5.711090   8.576520   2.900250  -0.579391   2.548110   2.369450 -53.220400  18.161100 -59.647400  17.595700 -24.859600 -101.812000  53.673200  55.839500 -17.862300  60.902600  57.359400 -109.834000 -38.727200  -0.009202  -0.002913 -14.363600  -0.003023  -0.003078 -57.460100   4.823450  -2.961740 -47.102300  -0.013111   0.116796 -35.204700  -0.051158   0.075603 -55.965400  -3.035470   2.048090 -57.056900   0.003784  -0.001542 -42.694200   0.012195  -0.003090 -79.367400  -4.769160   0.880840 -79.405500  -0.006100   0.000998 -59.554100  -0.001343  -0.003370 -85.022400  -9.966320   0.869390 -110.000000  -0.004928  -0.004944 -80.062200   0.001655  -0.003966   4.775800   3.186570   6.923280  51.276800  15.961600  56.716400 -20.637300 -26.791700  91.727700 -106.925000  67.005400  77.962100 -26.976400  34.879200  65.830800  58.503700  -0.002671   0.002099  32.303400  -0.001883   0.001557  45.948300   4.202760   4.036890  37.711700   0.008071  -0.025597  27.540900  -0.003377  -0.023012  28.850900  -3.750340  -6.744760  43.980300   0.004851   0.008875  29.290900   0.008188   0.004241  72.336000  -7.340200  -2.320800  72.487400   0.001063  -0.002177  54.365600  -0.002637  -0.001582  85.630600  -9.960040  -0.758361 110.000000   0.001061   0.002133  80.000000   0.000726   0.011560  -0.823153  13.506600   2.661390   0.515478   1.466070  12.990500  -5.203970  -3.763740   3.832490   0.000000   0.000000  -0.000000   2.835460  14.095700 -11.672100  -0.079557   1.884060  -9.390910 -10.112100  -0.748037  -1.319430   0.000000   0.000000  -0.000000
 -0.129893  89.897300   0.014189   0.388574 -12.800700   2.099760   1.084720   7.143350  -0.642181   2.277650  14.272600  -1.438740   3.433990   4.255590  -0.253465   5.727550   8.536230   2.862770  -0.596368   2.572900   2.357080 -53.343400  18.067300 -59.499800  17.533500 -24.751400 -102.201000  53.028400  55.875800 -17.528000  60.812700  57.224200 -109.758000 -37.938200  -0.009330  -0.002988 -13.969100  -0.003087  -0.003250 -51.362000   6.747260  -5.320860 -42.265100  -0.006544   0.126638 -31.090200  -0.051748   0.084480 -47.546000  -3.352000   3.170170 -55.576200  -0.005869  -0.006502 -39.821200   0.007185  -0.009737 -77.499800  -4.958880   1.103650 -77.547200  -0.006300   0.001003 -58.160400  -0.001634  -0.003284 -83.296200  -9.930050   1.168380 -110.000000  -0.004931  -0.004974 -80.133500   0.001702  -0.003886   4.778930   3.205360   6.915970  51.296200  15.894000  56.640600 -20.583800 -26.668600  91.812300 -106.506000  66.977400  77.679500 -26.986800  34.460500  65.760900  58.343300  -0.002646   0.002966  32.196600  -0.001870   0.001577  45.449800   4.364430   4.209720  37.312800   0.013478  -0.035825  26.847000  -0.001840  -0.029930  28.988200  -3.869040  -6.913430  41.620800   0.002758   0.014318  27.719500   0.009561   0.003768  71.912600  -7.528060  -2.447890  72.075500   0.001168  -0.003174  54.056700  -0.002677  -0.001682  85.256700  -9.946760  -0.822784 110.000000   0.001074   0.002188  80.000000   0.000859   0.011659  -0.821775  13.487900   2.658620   0.513829   1.472360  12.980500  -5.209640  -3.768600   3.835110   0.000000   0.000000  -0.000000   2.835430  14.087000 -11.672000  -0.069222   1.864860  -9.408700 -10.122200  -0.747679  -1.312250   0.000000   0.000000  -0.000000
 -0.140924  89.897500   0.024728   0.390132 -12.778000   2.106200   1.070560   7.117680  -0.648946   2.249360  14.221300  -1.449980   3.435280   4.237030  -0.253337   5.732000   8.499050   2.830920  -0.606250   2.620220   2.377850 -53.499600  17.991900 -59.342000  17.577000 -24.615600 -102.470000  53.398300  55.938200 -18.348400  60.705700  57.062300 -109.668000 -37.317600  -0.009457  -0.003083 -13.658800  -0.003158  -0.003434 -44.679000   7.887070  -8.056630 -36.998400   0.009545   0.109334 -26.652400  -0.031757   0.076086 -39.805300  -3.579520   4.324570 -52.497700  -0.031596  -0.025843 -35.988500  -0.009039  -0.025577 -75.680100  -5.512440   1.424880 -75.747500  -0.006513   0.000961 -56.810700  -0.001920  -0.003198 -81.613000  -9.828990   1.433500 -110.000000  -0.004951  -0.005008 -79.996900   0.001743  -0.003806   4.778190   3.252170   6.925390  51.357200  15.794800  56.504600 -20.462800 -26.403700  92.050000 -105.997000  67.017900  77.318400 -27.282000  34.574500  66.103800  57.658500  -0.002611   0.003666  31.740500  -0.001855   0.001603  42.399300   4.982040   5.444330  34.875700   0.026474  -0.039882  24.601800   0.005642  -0.032976  28.343000  -4.049290  -7.419790  36.415100  -0.000128   0.017265  24.252500   0.011345   0.003333  71.204800  -8.004010  -2.723090  71.397100   0.001277  -0.004150  53.547900  -0.002711  -0.001785  84.772300  -9.946890  -0.894810 110.000000   0.001075   0.002244  80.000000   0.000986   0.011738  -0.819805  13.468000   2.653770   0.512615   1.478570  12.971500  -5.214300  -3.773920   3.840560  -0.000000   0.000000   0.000000   2.839190  14.074500 -11.671700  -0.060896   1.846650  -9.416120 -10.133400  -0.747477  -1.311330  -0.000000   0.000000   0.000000
 -0.152454  89.897800   0.034886   0.390468 -12.752800   2.110480   1.055560   7.091240  -0.656318   2.219420  14.168500  -1.462340   3.435360   4.217480  -0.252943   5.729110   8.460070   2.812800  -0.616189   2.672300   2.415180 -53.677300  17.911000 -59.173600  17.709600 -24.464500 -102.670000  54.060600  56.058700 -19.506000  60.613300  56.921400 -109.591000 -36.978900  -0.009585  -0.003190 -13.489400  -0.003233  -0.003620 -37.071800   8.376270 -10.839400 -31.005300   0.021103   0.079902 -21.829300  -0.004249   0.059972 -32.930800  -3.838880   5.724790 -47.391800  -0.050013  -0.040933 -31.216000  -0.021017  -0.036887 -74.039900  -6.532340   1.864320 -74.142300  -0.006724   0.000919 -55.606800  -0.002192  -0.003112 -80.091200  -9.754830   1.695420 -110.000000  -0.004965  -0.005039 -79.698800   0.001778  -0.003728   4.780400   3.308850   6.940150  51.465000  15.692800  56.323900 -20.358400 -26.074500  92.329600 -105.574000  67.071900  77.103200 -27.564400  34.712800  66.422700  56.960400  -0.002575   0.004007  31.275600  -0.001840   0.001631  37.059100   5.450150   7.191400  30.603900   0.035559  -0.040615  21.336600   0.014643  -0.033645  26.436000  -4.164210  -8.291650  30.142200  -0.002018   0.018534  20.074700   0.012916   0.002920  70.499400  -8.746140  -3.087700  70.736900   0.001387  -0.005135  53.052700  -0.002744  -0.001889  84.275400  -9.948800  -0.990446 110.000000   0.001076   0.002297  80.000000   0.001111   0.011811  -0.816415  13.443400   2.643590   0.510788   1.487050  12.966800  -5.219060  -3.779690   3.849240  -0.000000   0.000000   0.000000   2.844990  14.057800 -11.671100  -0.052420   1.831150  -9.419550 -10.144900  -0.747387  -1.311200  -0.000000   0.000000  -0.000000
 -0.164473  89.898000   0.041839   0.390586 -12.724200   2.113320   1.037390   7.065920  -0.662170   2.182910  14.118100  -1.471260   3.430260   4.197710  -0.251189   5.717460   8.420430   2.814780  -0.630008   2.718550   2.451910 -53.859600  17.817800 -59.016400  18.012700 -24.281000 -102.707000  54.171300  56.202700 -19.992800  60.566400  56.849900 -109.552000 -37.003100  -0.009719  -0.003306 -13.501500  -0.003316  -0.003794 -28.775600   7.449700 -13.054000 -24.283300   0.020580   0.053849 -16.957400   0.005829   0.041350 -29.247900  -4.299770   7.698440 -38.484200  -0.040237  -0.025995 -25.259900  -0.018023  -0.025556 -73.096500  -8.494200   2.556710 -73.278100  -0.006970   0.000934 -54.958600  -0.002442  -0.003029 -79.193300 -10.236200   1.952020 -110.000000  -0.004962  -0.005060 -79.278200   0.001807  -0.003656   4.789520   3.374030   6.951980  51.625900  15.617800  56.106200 -20.327600 -25.739500  92.557000 -105.535000  67.062400  77.378300 -27.576500  34.568000  66.408900  56.708000  -0.002548   0.003896  31.107500  -0.001828   0.001662  30.576000   5.068220   8.547700  25.338500   0.035229  -0.024605  17.643000   0.019760  -0.022549  22.887800  -4.035080  -9.651500  24.098700   0.004129   0.014995  16.049700   0.014560   0.002521  70.112500  -9.869080  -3.567640  70.406900   0.001498  -0.006140  52.805200  -0.002785  -0.001991  83.880900 -10.553200  -1.137220 110.000000   0.001078   0.002343  80.000000   0.001239   0.011887  -0.809966  13.408900   2.621310   0.509553   1.502970  12.970200  -5.224890  -3.786630   3.863050  -0.000000   0.000000  -0.000000   2.849620  14.035000 -11.670100  -0.041484   1.822990  -9.421650 -10.156000  -0.748750  -1.311370   0.000000   0.000000   0.000000
